<?xml version="1.0" standalone="no"?>
<!DOCTYPE svg PUBLIC "-//W3C//DTD SVG 1.0//EN" "http://www.w3.org/TR/2001/REC-SVG-20010904/DTD/svg10.dtd">
<svg xmlns="http://www.w3.org/2000/svg" xmlns:xlink="http://www.w3.org/1999/xlink" id="body_1" width="1024" height="768">

<g transform="matrix(19.2 0 0 19.2 127.99999 -0)">
    <path d="M15.49 31C 19.673565 31.02946 23.694761 29.38263 26.65588 26.427147C 29.616999 23.471666 31.271488 19.453615 31.25 15.27C 31.25 15.030001 31.25 14.790001 31.25 14.56C 32.327522 13.7716 33.258312 12.800196 34 11.69C 32.989723 12.138104 31.917688 12.431397 30.82 12.559999C 31.973545 11.867598 32.836903 10.780408 33.25 9.5C 32.1655 10.144649 30.978184 10.597926 29.74 10.84C 28.02581 9.006647 25.29322 8.554785 23.080091 9.738715C 20.866962 10.922646 19.726278 13.446544 20.3 15.89C 15.842863 15.672955 11.6893425 13.567098 8.88 10.1C 7.4087377 12.631555 8.157219 15.870598 10.59 17.5C 9.71029 17.473385 8.849695 17.236807 8.08 16.81L8.08 16.81L8.08 16.88C 8.0837345 19.514359 9.938862 21.78313 12.52 22.31C 11.704376 22.529865 10.849323 22.560646 10.02 22.4C 10.748897 24.65672 12.82896 26.202713 15.200001 26.25C 13.238877 27.792017 10.814748 28.627071 8.320001 28.619999C 7.8786936 28.623268 7.437683 28.596542 7 28.54C 9.5352955 30.15773 12.482571 31.011707 15.49 31" stroke="none" fill="#000000" fill-rule="nonzero" />
</g>
</svg>